<svg width="840" height="244" viewBox="0 0 840 244" fill="none" xmlns="http://www.w3.org/2000/svg">
<path d="M41.3559 198.508V244C86.0203 244 104.217 242.346 116.624 237.383C116.624 233.247 116.624 204.298 118.278 191.892C121.586 187.756 128.203 178.658 130.685 171.214C134.242 160.541 136.475 138.956 137.302 122.414C137.84 111.643 139.783 104.217 140.61 91.8102C141.325 81.0814 143.092 56.9678 138.956 51.2814C134.82 45.5949 130.685 45.4915 128.203 46.3186C124.894 47.4218 123.721 51.8361 124.068 61.2068C124.527 73.6051 120.759 98.4271 118.278 99.6002V68.6508C118.278 48.8 117.451 38.8746 115.797 28.9492C114.142 19.0237 106.698 19.0237 103.39 19.8508C100.081 20.678 98.4271 23.1593 98.4271 28.9492C98.4271 34.739 96.7729 71.9593 96.7729 77.7491C96.7729 83.539 95.9458 90.983 93.4644 90.1559C90.983 89.3288 94.2915 39.7017 91.8102 12.4068C91.2064 5.76572 88.5017 0 81.0576 0C73.6136 0 71.9593 8.27119 71.1322 24.8136C70.4713 38.0309 69.2023 69.2023 68.6508 83.539H67.8237C65.3424 59.5525 67.2723 46.3186 65.3424 34.739C61.2068 9.92542 55.4169 7.11321 49.6271 8.27118C45.4915 9.0983 42.183 11.5553 42.183 25.6407V64.5152C42.183 86.8475 38.0475 126.549 37.2203 129.03C36.8504 130.14 34.4633 99.2542 30.6034 93.4644C23.8292 83.3032 16.5424 71.0495 7.44407 71.9593C3.30847 72.3729 0 76.0949 0 79.4034C10.7525 100.081 9.76 110.834 9.0983 124.068C8.27119 140.61 7.44404 146.4 11.5796 165.424C15.1758 181.966 41.3559 198.508 41.3559 198.508Z" fill="url(#paint0_linear_270_3249)"/>
<path d="M98.5764 92.6543C82.1679 92.0205 75.944 109.291 74.5295 118.005C72.4077 109.291 68.1641 92.6543 50.4826 92.6543C32.801 92.6543 24.6297 109.083 26.8145 121.144C26.8145 151.844 77.3585 186.929 77.3585 186.929C77.3585 186.929 117.672 152.071 120.501 125.135C121.75 113.252 119.087 93.4465 98.5764 92.6543Z" fill="url(#paint1_linear_270_3249)"/>
<path d="M339.105 89.9111L303.374 205.125H281.856L258.273 129.772C257.902 128.713 257.532 127.548 257.161 126.278C256.791 125.007 256.446 123.658 256.129 122.228C255.811 123.658 255.467 125.007 255.097 126.278C254.726 127.548 254.356 128.713 253.985 129.772L230.164 205.125H208.566L172.914 89.9111H192.924C194.988 89.9111 196.709 90.3875 198.085 91.3404C199.514 92.2932 200.441 93.5637 200.864 95.1517L218.73 160.104C219.153 161.904 219.577 163.862 220 165.98C220.477 168.044 220.927 170.241 221.35 172.57C221.827 170.188 222.329 167.965 222.859 165.9C223.388 163.836 223.97 161.904 224.606 160.104L245.409 95.1517C245.833 93.8283 246.733 92.6373 248.109 91.5786C249.538 90.4669 251.259 89.9111 253.27 89.9111H260.258C262.322 89.9111 263.99 90.414 265.26 91.4198C266.584 92.3726 267.563 93.6166 268.198 95.1517L288.922 160.104C289.558 161.798 290.14 163.65 290.669 165.662C291.199 167.621 291.702 169.712 292.178 171.935C292.601 169.712 292.998 167.621 293.369 165.662C293.793 163.65 294.216 161.798 294.64 160.104L312.505 95.1517C312.876 93.7754 313.776 92.5579 315.205 91.4992C316.634 90.4405 318.355 89.9111 320.366 89.9111H339.105Z" fill="#3769CB"/>
<path d="M375.891 121.99C382.032 121.99 387.617 122.969 392.646 124.928C397.674 126.887 401.989 129.692 405.588 133.345C409.188 136.944 411.967 141.338 413.926 146.526C415.884 151.713 416.864 157.563 416.864 164.074C416.864 170.585 415.884 176.461 413.926 181.701C411.967 186.889 409.188 191.309 405.588 194.962C401.989 198.614 397.674 201.42 392.646 203.379C387.617 205.337 382.032 206.316 375.891 206.316C369.698 206.316 364.06 205.337 358.979 203.379C353.95 201.42 349.635 198.614 346.036 194.962C342.436 191.309 339.631 186.889 337.619 181.701C335.66 176.461 334.681 170.585 334.681 164.074C334.681 157.563 335.66 151.713 337.619 146.526C339.631 141.338 342.436 136.944 346.036 133.345C349.635 129.692 353.95 126.887 358.979 124.928C364.06 122.969 369.698 121.99 375.891 121.99ZM375.891 189.88C382.138 189.88 386.77 187.736 389.787 183.448C392.804 179.108 394.313 172.676 394.313 164.153C394.313 155.684 392.804 149.305 389.787 145.017C386.77 140.676 382.138 138.506 375.891 138.506C369.486 138.506 364.775 140.676 361.758 145.017C358.74 149.305 357.232 155.684 357.232 164.153C357.232 172.676 358.74 179.108 361.758 183.448C364.775 187.736 369.486 189.88 375.891 189.88Z" fill="#3769CB"/>
<path d="M452.698 86.735V205.125H430.783V86.735H452.698Z" fill="#3769CB"/>
<path d="M507.869 121.99C514.009 121.99 519.594 122.969 524.623 124.928C529.652 126.887 533.966 129.692 537.565 133.345C541.165 136.944 543.944 141.338 545.903 146.526C547.861 151.713 548.841 157.563 548.841 164.074C548.841 170.585 547.861 176.461 545.903 181.701C543.944 186.889 541.165 191.309 537.565 194.962C533.966 198.614 529.652 201.42 524.623 203.379C519.594 205.337 514.009 206.316 507.869 206.316C501.675 206.316 496.037 205.337 490.956 203.379C485.927 201.42 481.613 198.614 478.013 194.962C474.413 191.309 471.608 186.889 469.596 181.701C467.638 176.461 466.658 170.585 466.658 164.074C466.658 157.563 467.638 151.713 469.596 146.526C471.608 141.338 474.413 136.944 478.013 133.345C481.613 129.692 485.927 126.887 490.956 124.928C496.037 122.969 501.675 121.99 507.869 121.99ZM507.869 189.88C514.115 189.88 518.747 187.736 521.764 183.448C524.782 179.108 526.29 172.676 526.29 164.153C526.29 155.684 524.782 149.305 521.764 145.017C518.747 140.676 514.115 138.506 507.869 138.506C501.463 138.506 496.752 140.676 493.735 145.017C490.717 149.305 489.209 155.684 489.209 164.153C489.209 172.676 490.717 179.108 493.735 183.448C496.752 187.736 501.463 189.88 507.869 189.88Z" fill="#3769CB"/>
<path d="M624.27 161.374L611.804 126.119C611.063 124.266 610.269 122.096 609.422 119.608C608.628 117.12 607.86 114.42 607.119 111.509C606.378 114.473 605.584 117.226 604.737 119.767C603.943 122.255 603.175 124.425 602.434 126.278L590.047 161.374H624.27ZM664.29 205.125H645.789C643.724 205.125 642.03 204.649 640.707 203.696C639.436 202.69 638.483 201.42 637.848 199.885L630.067 177.89H584.172L576.39 199.885C575.861 201.208 574.934 202.426 573.611 203.537C572.287 204.596 570.62 205.125 568.608 205.125H549.949L594.97 89.9111H619.347L664.29 205.125Z" fill="#3769CB"/>
<path d="M693.696 183.528C695.761 185.91 697.984 187.577 700.366 188.53C702.801 189.483 705.395 189.959 708.147 189.959C710.794 189.959 713.203 189.456 715.373 188.451C717.544 187.445 719.396 185.883 720.931 183.766C722.519 181.596 723.737 178.843 724.584 175.508C725.431 172.173 725.854 168.203 725.854 163.597C725.854 159.045 725.484 155.181 724.743 152.005C724.055 148.828 723.049 146.261 721.725 144.302C720.455 142.344 718.893 140.941 717.041 140.094C715.188 139.194 713.123 138.744 710.847 138.744C706.983 138.744 703.727 139.512 701.081 141.047C698.487 142.529 696.025 144.726 693.696 147.637V183.528ZM692.426 133.98C694.067 132.18 695.814 130.539 697.666 129.057C699.519 127.522 701.504 126.225 703.622 125.166C705.739 124.055 708.015 123.208 710.45 122.625C712.885 121.99 715.532 121.672 718.391 121.672C722.784 121.672 726.807 122.625 730.46 124.531C734.165 126.384 737.341 129.11 739.988 132.71C742.635 136.256 744.7 140.623 746.182 145.811C747.664 150.999 748.405 156.928 748.405 163.597C748.405 169.738 747.558 175.429 745.864 180.669C744.223 185.857 741.867 190.356 738.797 194.168C735.727 197.979 732.021 200.97 727.681 203.14C723.393 205.258 718.602 206.316 713.309 206.316C708.862 206.316 705.077 205.655 701.954 204.331C698.884 203.008 696.131 201.208 693.696 198.932V231.567H671.781V123.261H685.279C688.032 123.261 689.858 124.531 690.758 127.072L692.426 133.98Z" fill="#3769CB"/>
<path d="M784.421 183.528C786.485 185.91 788.708 187.577 791.091 188.53C793.526 189.483 796.119 189.959 798.872 189.959C801.519 189.959 803.927 189.456 806.098 188.451C808.268 187.445 810.121 185.883 811.656 183.766C813.244 181.596 814.462 178.843 815.309 175.508C816.156 172.173 816.579 168.203 816.579 163.597C816.579 159.045 816.208 155.181 815.467 152.005C814.779 148.828 813.773 146.261 812.45 144.302C811.18 142.344 809.618 140.941 807.765 140.094C805.912 139.194 803.848 138.744 801.572 138.744C797.707 138.744 794.452 139.512 791.805 141.047C789.211 142.529 786.75 144.726 784.421 147.637V183.528ZM783.15 133.98C784.791 132.18 786.538 130.539 788.391 129.057C790.244 127.522 792.229 126.225 794.346 125.166C796.463 124.055 798.74 123.208 801.175 122.625C803.61 121.99 806.257 121.672 809.115 121.672C813.509 121.672 817.532 122.625 821.184 124.531C824.89 126.384 828.066 129.11 830.713 132.71C833.36 136.256 835.424 140.623 836.906 145.811C838.388 150.999 839.13 156.928 839.13 163.597C839.13 169.738 838.283 175.429 836.589 180.669C834.948 185.857 832.592 190.356 829.522 194.168C826.451 197.979 822.746 200.97 818.405 203.14C814.117 205.258 809.327 206.316 804.033 206.316C799.587 206.316 795.802 205.655 792.679 204.331C789.608 203.008 786.856 201.208 784.421 198.932V231.567H762.505V123.261H776.004C778.757 123.261 780.583 124.531 781.483 127.072L783.15 133.98Z" fill="#3769CB"/>
<defs>
<linearGradient id="paint0_linear_270_3249" x1="70.8012" y1="0" x2="70.8012" y2="244" gradientUnits="userSpaceOnUse">
<stop stop-color="#FFBF44"/>
<stop offset="1" stop-color="#FFA929"/>
</linearGradient>
<linearGradient id="paint1_linear_270_3249" x1="73.6136" y1="92.6373" x2="73.6136" y2="186.929" gradientUnits="userSpaceOnUse">
<stop stop-color="#DE131A"/>
<stop offset="1" stop-color="#FB2A2A"/>
</linearGradient>
</defs>
</svg>
